<svg version="1.1" xmlns="http://www.w3.org/2000/svg">
  <defs>
    <symbol id="home" viewBox="0 0 32 32">
      <path d="M32 19l-6-6v-9h-4v5l-6-6-16 16v1h4v10h10v-6h4v6h10v-10h4z"></path>
    </symbol>
    <symbol id="camera" viewBox="0 0 32 32">
      <path
        d="M9.5 19c0 3.59 2.91 6.5 6.5 6.5s6.5-2.91 6.5-6.5-2.91-6.5-6.5-6.5-6.5 2.91-6.5 6.5zM30 8h-7c-0.5-2-1-4-3-4h-8c-2 0-2.5 2-3 4h-7c-1.1 0-2 0.9-2 2v18c0 1.1 0.9 2 2 2h28c1.1 0 2-0.9 2-2v-18c0-1.1-0.9-2-2-2zM16 27.875c-4.902 0-8.875-3.973-8.875-8.875s3.973-8.875 8.875-8.875c4.902 0 8.875 3.973 8.875 8.875s-3.973 8.875-8.875 8.875zM30 14h-4v-2h4v2z"></path>
    </symbol>
    <symbol id="headphones" viewBox="0 0 32 32">
      <path d="M9 18h-2v14h2c0.55 0 1-0.45 1-1v-12c0-0.55-0.45-1-1-1z"></path>
      <path d="M23 18c-0.55 0-1 0.45-1 1v12c0 0.55 0.45 1 1 1h2v-14h-2z"></path>
      <path class="handles"
        d="M32 16c0-8.837-7.163-16-16-16s-16 7.163-16 16c0 1.919 0.338 3.759 0.958 5.464-0.609 1.038-0.958 2.246-0.958 3.536 0 3.526 2.608 6.443 6 6.929v-13.857c-0.997 0.143-1.927 0.495-2.742 1.012-0.168-0.835-0.258-1.699-0.258-2.584 0-7.18 5.82-13 13-13s13 5.82 13 13c0 0.885-0.088 1.749-0.257 2.584-0.816-0.517-1.745-0.87-2.743-1.013v13.858c3.392-0.485 6-3.402 6-6.929 0-1.29-0.349-2.498-0.958-3.536 0.62-1.705 0.958-3.545 0.958-5.465z"></path>
    </symbol>
    <symbol id="opportunities" viewBox="0 0 100 100">
      <path d="m71.1 69h-42.2c-1 0-1.9 0.9-1.9 1.9v0.1c0 3.3 2.7 6 6 6h34c3.3 0 6-2.7 6-6v-0.1c0-1-0.9-1.9-1.9-1.9z m4.9-41c-3.3 0-6 2.7-6 6 0 1.8 0.8 3.5 2.1 4.6-1.7 3.9-5.6 6.6-10.2 6.4-5.3-0.3-9.6-4.6-9.9-9.9 0-0.9 0-1.7 0.2-2.5 2.2-0.9 3.8-3 3.8-5.6 0-3.3-2.7-6-6-6s-6 2.7-6 6c0 2.5 1.6 4.7 3.8 5.6 0.2 0.8 0.2 1.6 0.2 2.5-0.3 5.3-4.6 9.6-9.9 9.9-4.6 0.3-8.6-2.5-10.2-6.4 1.3-1.1 2.1-2.8 2.1-4.6 0-3.3-2.7-6-6-6s-6 2.7-6 6 2.7 6 6 6l2.8 21.4c0.1 0.9 0.9 1.6 1.9 1.6h42.6c0.9 0 1.7-0.7 1.9-1.6l2.8-21.4c3.3 0 6-2.7 6-6s-2.7-6-6-6z"></path>
    </symbol>
  </defs>
</svg>